<mxfile host="app.diagrams.net" modified="2024-04-17T13:53:57.640Z" agent="Mozilla/5.0 (X11; Linux x86_64) AppleWebKit/537.36 (KHTML, like Gecko) Chrome/124.0.0.0 Safari/537.36" version="24.2.5" etag="k8D4W34AZ6EZfALB--9G" type="github">
  <diagram name="第 1 页" id="9u5Q3XTlckff0kviZDFU">
    <mxGraphModel>
      <root>
        <mxCell id="0" />
        <mxCell id="1" parent="0" />
      </root>
    </mxGraphModel>
  </diagram>
</mxfile>
